<svg width="89" height="58" viewBox="0 0 89 58" fill="none" xmlns="http://www.w3.org/2000/svg">
<path opacity="0.1" d="M22.0644 57.24C17.851 57.24 14.1177 56.0933 10.8644 53.8C7.66438 51.4533 5.15771 48.1467 3.34438 43.88C1.58438 39.6133 0.704375 34.6533 0.704375 29C0.704375 23.3467 1.58438 18.3867 3.34438 14.12C5.15771 9.85333 7.66438 6.57333 10.8644 4.28C14.1177 1.93333 17.851 0.759999 22.0644 0.759999C26.2777 0.759999 29.9844 1.93333 33.1844 4.28C36.4377 6.57333 38.9444 9.85333 40.7044 14.12C42.5177 18.3867 43.4244 23.3467 43.4244 29C43.4244 34.6533 42.5177 39.6133 40.7044 43.88C38.9444 48.1467 36.4377 51.4533 33.1844 53.8C29.9844 56.0933 26.2777 57.24 22.0644 57.24ZM22.0644 55.72C25.9577 55.72 29.3977 54.6267 32.3844 52.44C35.371 50.2533 37.691 47.16 39.3444 43.16C40.9977 39.1067 41.8244 34.3867 41.8244 29C41.8244 23.6133 40.9977 18.92 39.3444 14.92C37.691 10.8667 35.371 7.74666 32.3844 5.56C29.3977 3.37333 25.9577 2.28 22.0644 2.28C18.171 2.28 14.731 3.37333 11.7444 5.56C8.75771 7.74666 6.43771 10.8667 4.78438 14.92C3.13104 18.92 2.30438 23.6133 2.30438 29C2.30438 34.3867 3.13104 39.1067 4.78438 43.16C6.43771 47.16 8.75771 50.2533 11.7444 52.44C14.731 54.6267 18.171 55.72 22.0644 55.72ZM65.1319 25.24C73.3985 25.24 79.3452 26.6267 82.9719 29.4C86.5985 32.12 88.4119 36.0933 88.4119 41.32C88.4119 46.0133 86.7852 49.8533 83.5319 52.84C80.3319 55.7733 75.7452 57.24 69.7719 57.24C65.7185 57.24 61.9585 56.52 58.4919 55.08C55.0252 53.5867 52.4385 51.6667 50.7319 49.32L51.7719 48.28C53.3719 50.4667 55.7985 52.2533 59.0519 53.64C62.3052 55.0267 65.8785 55.72 69.7719 55.72C75.3185 55.72 79.5319 54.4133 82.4119 51.8C85.3452 49.1333 86.8119 45.64 86.8119 41.32C86.8119 36.52 85.1319 32.8933 81.7719 30.44C78.4119 27.9867 72.7585 26.76 64.8119 26.76H54.2519L57.2119 0.999996H85.6119V2.52H58.5719L55.9319 25.24H65.1319Z" fill="#2B2B2B"/>
</svg>
